<svg width="110" height="140" xmlns="http://www.w3.org/2000/svg">
 <defs>
  <style>.cls-1{fill:#fff;}.cls-2{fill:#005596;}.cls-3{fill:#ffcf01;}.cls-4{fill:#58595b;}</style>
 </defs>
 <title>uwindsor_logo</title>
 <g>
  <title>background</title>
  <rect fill="none" id="canvas_background" height="142" width="112" y="-1" x="-1"/>
 </g>
 <g>
  <title>Layer 1</title>
  <path id="svg_1" d="m56.4,135.33c-70,-27.27 -48.17,-120.3 -48.17,-120.3c12.64,-6.65 41.29,-9 48.17,-9s35.53,2.39 48.17,9c-0.01,0 21.8,93.02 -48.17,120.3z" class="cls-1"/>
  <path id="svg_2" d="m107.48,14.35l-0.31,-1.33l-1.21,-0.64c-13.37,-7 -42.84,-9.37 -49.56,-9.37s-36.2,2.35 -49.57,9.38l-1.21,0.62l-0.31,1.33a160.5,160.5 0 0 0 -2.21,51c2,15.91 6.58,29.81 13.71,41.29c9,14.45 21.93,25.05 38.51,31.51l1.09,0.43l1.09,-0.43c16.58,-6.46 29.53,-17.06 38.5,-31.51c7.13,-11.48 11.74,-25.37 13.7,-41.29a160.37,160.37 0 0 0 -2.22,-50.99zm-51.09,121c-70,-27.27 -48.17,-120.3 -48.17,-120.3c12.64,-6.65 41.29,-9 48.17,-9s35.53,2.38 48.17,9c0,-0.02 21.8,93.01 -48.17,120.28l0,0.02z" class="cls-2"/>
  <path id="svg_3" d="m12.56,83.58a77.83,77.83 0 0 0 15.43,28.73l-5.79,-31.82c-4.25,1.2 -7.59,2.36 -9.64,3.12l0,-0.03z" class="cls-2"/>
  <path id="svg_4" d="m42.14,58.29l9.36,-48.56a198.91,198.91 0 0 0 -28.81,4.13l7.83,46.2c3.93,-0.75 7.82,-1.35 11.57,-1.77l0.05,0zm-2.52,-26.23c0,1.21 0.25,2.23 0.55,2.36a20.59,20.59 0 0 0 -1.71,1.29c-0.38,0.38 -2.06,2.41 -2.06,2.41s-1.68,-2 -2.06,-2.41a20.07,20.07 0 0 0 -1.72,-1.3c0.3,-0.13 0.55,-1.14 0.55,-2.36c0,-1.47 -0.85,-2.79 -2.1,-2.79c-1.81,0 -2.06,1.24 -2.06,1.24s-1.67,-1.57 -1.67,-3.09c0,-3.45 1.86,-3.21 2.66,-3.21c1.85,0 4.37,2.88 4.37,2.88c-0.28,-0.63 -0.76,-1.75 -0.9,-2.1c-0.06,-0.14 -0.13,-0.32 -0.21,-0.51a4.51,4.51 0 0 1 -0.09,-3.18c0.43,-1.33 1.35,-1.9 2.1,-2.83s1.12,-1.31 1.12,-1.31s0.31,0.32 1.11,1.31s1.67,1.5 2.1,2.83a4.5,4.5 0 0 1 -0.05,3.2c-0.07,0.2 -0.15,0.37 -0.21,0.51c-0.14,0.35 -0.62,1.47 -0.9,2.1c0,0 2.52,-2.88 4.37,-2.88c0.8,0 2.66,-0.23 2.66,3.21c0,1.52 -1.67,3.09 -1.67,3.09s-0.24,-1.24 -2.06,-1.24c-1.25,-0.01 -2.12,1.3 -2.12,2.78z" class="cls-2"/>
  <path id="svg_5" d="m20.09,68.16c1.74,-0.46 3.5,-0.89 5.21,-1.28l0.45,-0.1l2.24,-0.49l0.11,0l0.57,-0.12l2.79,-0.56l0.13,0l0,0c3.2,-0.61 6.36,-1.11 9.4,-1.49l0,0l0.08,-0.42l0.75,-3.9c-3.61,0.42 -7.36,1 -11.15,1.72s-7.69,1.62 -11.46,2.62c-3.55,0.95 -7,2 -10.2,3.07l-0.06,0c0.12,0.82 0.33,2.32 0.65,4.07c3.24,-1.08 6.81,-2.14 10.33,-3.07l0.16,-0.05z" class="cls-2"/>
  <path id="svg_6" d="m33.52,77.8l2.27,13.58l2.75,-14.44c-1.61,0.24 -3.25,0.52 -5,0.86l-0.02,0z" class="cls-2"/>
  <path id="svg_7" d="m23.62,73.17l0.12,0l2.6,-0.68l0.18,0c0.92,-0.22 1.85,-0.44 2.75,-0.64l0.17,0c1,-0.23 2,-0.43 2.92,-0.62c2.56,-0.52 5.08,-1 7.49,-1.3l0.06,0l0.81,-4.25c-2.94,0.38 -6,0.87 -9,1.46c-1,0.18 -1.95,0.38 -3,0.6l-0.17,0l-2.72,0.6l-0.16,0c-1.81,0.42 -3.62,0.86 -5.37,1.33c-3.35,0.88 -6.73,1.89 -10.33,3.1l0,0c0.14,0.73 0.29,1.54 0.46,2.28l0.13,0.57c0.11,0.5 0.23,1 0.35,1.51c3.16,-1.14 6.67,-2.25 10.16,-3.24l2.55,-0.72z" class="cls-2"/>
  <path id="svg_8" d="m29.81,73.15l-0.33,0.07c-2.74,0.62 -5.5,1.31 -8.2,2.08c-3.49,1 -6.88,2.07 -10.09,3.22l0,0q0.45,1.83 1,3.65l0.11,-0.06a134.4,134.4 0 0 1 26.57,-6.68l0,0l0.75,-4.11c-2.34,0.35 -4.76,0.77 -7.2,1.27l-2.61,0.56z" class="cls-2"/>
  <path id="svg_9" d="m18.98,62.7l-8.14,-44.77l-0.06,0a150.67,150.67 0 0 0 -2,47.81c3.24,-1.1 6.66,-2.13 10.16,-3.06l0.04,0.02z" class="cls-2"/>
  <path id="svg_10" d="m59.12,57.49l-2.72,-13.61l-2.7,13.61c0.87,0 1.77,0 2.66,0s1.83,0 2.76,0z" class="cls-2"/>
  <path id="svg_11" d="m60.32,63.15c-0.13,-0.62 -0.75,-3.57 -0.9,-4.2l0,0c-0.94,0 -1.94,0 -3,0s-2,0 -3,0l0,0c-0.14,0.63 -0.76,3.58 -0.89,4.2c1.41,0 2.69,-0.07 3.91,-0.07s2.46,0.02 3.88,0.07z" class="cls-2"/>
  <polygon id="svg_12" points="52.4900016784668,63.25999450683594 52.4900016784668,63.27000427246094 52.4900016784668,63.27000427246094 52.4900016784668,63.25999450683594 " class="cls-2"/>
  <path id="svg_13" d="m56.42,68.59c1.49,0 3.08,0 5,0.13l-0.8,-4.12l-0.1,0c-1.57,-0.11 -2.9,-0.11 -4.1,-0.11s-2.55,0 -4.12,0.09l-0.08,0l-0.82,4.13l0,0c1.96,-0.08 3.55,-0.12 5.02,-0.12z" class="cls-2"/>
  <path id="svg_14" d="m62.52,74.31l-0.82,-4.14l-0.08,0c-2,-0.1 -3.66,-0.15 -5.22,-0.15s-3.25,0 -5.27,0.15l0,0l-0.82,4.13c2.21,-0.12 4.19,-0.17 6.05,-0.17s3.95,0.07 6.16,0.18z" class="cls-2"/>
  <path id="svg_15" d="m62.77,75.76c-2.26,-0.13 -4.34,-0.19 -6.35,-0.19s-4.08,0.06 -6.35,0.19l0,0l-9.62,47.73a75.8,75.8 0 0 0 16,8.47a75.74,75.74 0 0 0 16,-8.49l-9.65,-47.71l-0.03,0zm-9.78,43c-1.71,0 -6,-1.66 -6.32,-8.32c-0.25,-4.87 1.17,-6.16 1.17,-6.16l2.62,4.78c0,6.86 4.95,7 4.95,7a2.4,2.4 0 0 1 -2.42,2.73l0,-0.03zm4,1.94l-1.26,0l0,-7.09c-0.65,-0.28 -2.1,-1 -2.06,-3.67a23.48,23.48 0 0 0 -0.79,-6.78c-0.42,-1.5 -3,-3.08 -3,-3.08c2.58,-2.87 4.84,1 4.74,0.54a7.18,7.18 0 0 1 0.62,-3.24a9.81,9.81 0 0 1 1.1,-1.77a9.78,9.78 0 0 1 1.11,1.77a7.16,7.16 0 0 1 0.62,3.24c-0.1,0.48 2.16,-3.41 4.74,-0.54c0,0 -2.54,1.58 -3,3.08a23.58,23.58 0 0 0 -0.79,6.78c0,2.85 -1.62,3.47 -2.18,3.72l0.15,7.04zm9.12,-10.21c-0.34,6.66 -4.62,8.32 -6.33,8.32a2.39,2.39 0 0 1 -2.41,-2.69s4.95,-0.14 4.95,-7l2.62,-4.78s1.42,1.27 1.17,6.15z" class="cls-2"/>
  <path id="svg_16" d="m92.62,69.65c-1.77,-0.47 -3.57,-0.91 -5.34,-1.33l-0.23,-0.05l-2.47,-0.55l-0.5,-0.11l-2.84,-0.57c-3.07,-0.59 -6.13,-1.08 -9.09,-1.46l-0.07,0l0.82,4.25l0.15,0c2.39,0.35 4.79,0.76 7.33,1.27l0.15,0c3.77,0.76 7.6,1.69 11.39,2.76c3.39,1 6.74,2 9.94,3.17l0.18,0.07q0.51,-2.21 0.93,-4.41l-0.17,-0.05c-3.28,-1.04 -6.71,-2.06 -10.18,-2.99z" class="cls-2"/>
  <path id="svg_17" d="m91.62,75.33l0,0l0,0l-2.59,-0.71l-0.05,0l-2.73,-0.7c-2,-0.48 -3.95,-0.92 -5.93,-1.33c-2.39,-0.48 -4.76,-0.9 -7.05,-1.24l-0.06,0l0.86,4.14l0,0c1.65,0.24 3.37,0.54 5.37,0.92l0.18,0l0.88,0.18l0.76,0.15l0.49,0.1c0.91,0.19 1.85,0.4 2.88,0.63l0.77,0.18c1.06,0.25 2,0.48 2.84,0.7l0.31,0.08l2,0.55l0.49,0.14c3.3,0.93 6.47,2 9.44,3.05l0.21,0.08q0.53,-1.84 1,-3.69l-0.22,-0.08c-3.18,-1.15 -6.49,-2.2 -9.85,-3.15z" class="cls-2"/>
  <path id="svg_18" d="m74.37,76.96l2.75,14.42l2.26,-13.55l0,0c-1.76,-0.34 -3.38,-0.62 -5.01,-0.87z" class="cls-2"/>
  <path id="svg_19" d="m90.69,80.49l-5.77,31.76a77.93,77.93 0 0 0 15.37,-28.63l0,0c-3.05,-1.13 -6.28,-2.13 -9.6,-3.13z" class="cls-2"/>
  <path id="svg_20" d="m104.05,65.83a150.56,150.56 0 0 0 -2,-47.87l0,0l-8.13,44.8l0,0c3.49,0.94 6.89,1.97 10.13,3.07z" class="cls-2"/>
  <path id="svg_21" d="m82.38,60.1l7.84,-46.23a198.93,198.93 0 0 0 -28.82,-4.14l9.37,48.58l0,0c3.79,0.43 7.69,1.04 11.61,1.79zm-12.52,-30.55l1.69,-1l-4.17,-2.4l0.69,-0.24l-1.65,-3l3.41,-0.06l-0.14,-0.72l4.25,2.45l0,-4.9l0.55,0.48l1.68,-2.92l1.68,2.92l0.55,-0.48l0,4.9l4.22,-2.42l-0.14,0.72l3.41,0.06l-1.65,3l0.69,0.24l-4.17,2.4l1.69,1l-0.69,0.24l1.65,3l-3.41,0.07l0.14,0.72l-3.22,-1.86l0,6.31l-1.53,0l0,-6.36l-3.22,1.86l0.14,-0.72l-3.41,-0.07l1.65,-3l-0.69,-0.22z" class="cls-2"/>
  <path id="svg_22" d="m93.62,64.16l-2.5,-0.67l-0.26,0c-2.88,-0.72 -5.8,-1.37 -8.69,-1.93c-3.79,-0.77 -7.55,-1.35 -11.13,-1.77c0.09,0.64 0.63,3.66 0.74,4.3l0,0c3.08,0.39 6.26,0.89 9.48,1.5l0.15,0c0.89,0.17 1.82,0.36 2.82,0.57l0.52,0.11l2.6,0.58l0.08,0l2.61,0.62l0.7,0.18l1.91,0.49l0.08,0l0.16,0l0.09,0c3.49,0.93 6.88,1.94 10.08,3l0.12,0c0.24,-1.36 0.45,-2.71 0.63,-4l-0.13,0c-3.19,-1.01 -6.6,-2.04 -10.06,-2.98z" class="cls-2"/>
  <polygon id="svg_23" points="11.140000343322754,78.4000015258789 11.140000343322754,78.4000015258789 11.140000343322754,78.4000015258789 11.140000343322754,78.4000015258789 " class="cls-3"/>
  <path id="svg_24" d="m59.11,57.49c-0.93,0 -1.83,0 -2.76,0s-1.79,0 -2.66,0c0,0 -0.3,1.44 -0.3,1.44l0,0c0.95,0 2,0 3,0s2,0 3,0l0,0s-0.27,-1.44 -0.28,-1.44z" class="cls-3"/>
  <path id="svg_25" d="m42.08,58.29c-3.75,0.42 -7.64,1 -11.57,1.77l0,0c-3.85,0.74 -7.73,1.63 -11.54,2.64l0,0c-3.5,0.93 -6.92,2 -10.16,3.06c0,0 0,0.08 0,0.13c0.05,0.39 0.1,0.78 0.15,1.17l0,0l0,0.12l0.06,0c3.22,-1.09 6.65,-2.13 10.2,-3.07c3.78,-1 7.63,-1.89 11.46,-2.62s7.54,-1.3 11.15,-1.72l0.29,-1.48l-0.04,0z" class="cls-3"/>
  <path id="svg_26" d="m8.83,65.89l0,0l0.16,1.16l0,0c-0.07,-0.38 -0.11,-0.77 -0.16,-1.16z" class="cls-3"/>
  <path id="svg_27" d="m93.92,62.76l0,0c-3.81,-1 -7.69,-1.92 -11.53,-2.66l0,0c-3.92,-0.76 -7.82,-1.36 -11.57,-1.78l0,0l0,0.13s0.23,1.22 0.23,1.22a0.53,0.53 0 0 0 0,0.13c3.59,0.42 7.34,1 11.12,1.74c2.89,0.56 5.81,1.21 8.69,1.93l0.26,0.07l2.47,0.64c3.49,0.94 6.9,2 10.13,3.06l0.13,0c0,-0.19 0.07,-0.39 0.09,-0.58s0.06,-0.49 0.09,-0.73l0,-0.12c-3.22,-1.08 -6.62,-2.11 -10.11,-3.05z" class="cls-3"/>
  <path id="svg_28" d="m38.83,75.43a134.4,134.4 0 0 0 -26.57,6.68l-0.11,0.06l0.42,1.41l0,0c2,-0.76 5.38,-1.92 9.64,-3.12l0,0c3.69,-1 7.5,-1.93 11.31,-2.65l0,0c1.76,-0.33 3.41,-0.61 5,-0.86l0.33,-1.51l-0.02,-0.01z" class="cls-3"/>
  <path id="svg_29" d="m100.5,82.16c-3,-1.09 -6.15,-2.12 -9.44,-3.05l-0.49,-0.14l-2,-0.55l-0.31,-0.08c-0.85,-0.22 -1.78,-0.45 -2.84,-0.7l-0.8,-0.15c-1,-0.24 -2,-0.44 -2.88,-0.63l-0.49,-0.1l-0.76,-0.15l-0.87,-0.2l-0.12,0c-2,-0.38 -3.72,-0.68 -5.37,-0.92l0,0l0,0.13l0.24,1.24l0,0.13c1.63,0.25 3.27,0.53 5,0.86l0,0c3.8,0.73 7.61,1.63 11.3,2.67l0,0c3.32,0.94 6.55,2 9.6,3.12l0,0l0,-0.12c0.12,-0.38 0.23,-0.76 0.34,-1.15l0,-0.12l-0.11,-0.09z" class="cls-3"/>
  <path id="svg_30" d="m100.34,83.49l0.34,-1.15l0,0c-0.11,0.38 -0.23,0.77 -0.34,1.15z" class="cls-3"/>
  <path id="svg_31" d="m62.52,74.31c-2.21,-0.12 -4.23,-0.17 -6.16,-0.17s-3.84,0.06 -6.05,0.17l-0.27,1.45l0,0c2.27,-0.13 4.35,-0.19 6.35,-0.19s4.09,0.06 6.35,0.19l0,0l-0.22,-1.45z" class="cls-3"/>
  <polygon id="svg_32" points="62.540000915527344,74.44000244140625 62.7599983215332,75.55000305175781 62.54999923706055,74.44000244140625 62.540000915527344,74.44000244140625 " class="cls-3"/>
  <path id="svg_33" d="m60.32,63.15c-1.42,0 -2.69,-0.07 -3.9,-0.07s-2.5,0 -3.91,0.07l-0.29,1.45l0.08,0c1.57,-0.06 2.88,-0.09 4.12,-0.09s2.53,0 4.1,0.08l0.1,0l-0.3,-1.44z" class="cls-3"/>
  <path id="svg_34" d="m40.98,64.08c-3,0.38 -6.2,0.88 -9.4,1.49l0,0l-0.13,0l-2.83,0.57l-0.57,0.12l-0.11,0l-2.24,0.49l-0.45,0.1c-1.72,0.39 -3.47,0.82 -5.21,1.28l-0.12,0c-3.52,0.93 -7.1,2 -10.33,3.07l0,0.13l0,0l0.21,1.21l0,0l0,0.15l0,0c3.6,-1.2 7,-2.22 10.33,-3.1c1.75,-0.46 3.56,-0.91 5.37,-1.33l0.16,0l2.72,-0.6l0.17,0c1,-0.22 2,-0.42 3,-0.6c3.06,-0.58 6.1,-1.08 9,-1.46l0,-0.13l0,0l0.24,-1.24l0,0l0,-0.13l0.19,-0.02z" class="cls-3"/>
  <polygon id="svg_35" points="41,64.20999908447266 41,64.20999908447266 40.7599983215332,65.44999694824219 40.7599983215332,65.44999694824219 41,64.20999908447266 41,64.20999908447266 " class="cls-3"/>
  <path id="svg_36" d="m9.62,71.39c0.07,0.39 0.13,0.77 0.22,1.2l0,0l-0.22,-1.21l0,0.01z" class="cls-3"/>
  <polygon id="svg_37" points="9.880000114440918,72.58999633789062 9.880000114440918,72.58999633789062 9.880000114440918,72.58999633789062 9.880000114440918,72.58999633789062 " class="cls-3"/>
  <path id="svg_38" d="m103.09,71.28c-3.2,-1.07 -6.59,-2.08 -10.08,-3l-0.09,0l-0.16,0l-0.08,0l-1.91,-0.49l-0.7,-0.18l-2.61,-0.62l-0.08,0l-2.6,-0.58l-0.52,-0.11c-1,-0.21 -1.93,-0.4 -2.82,-0.57l-0.15,0c-3.21,-0.61 -6.4,-1.12 -9.48,-1.5l0,0l0,0.13l0.23,1.13l0,0.13l0.07,0c3,0.38 6,0.88 9.09,1.46l2.84,0.57l0.5,0.11l2.47,0.55l0.23,0.05c1.77,0.41 3.57,0.86 5.34,1.33c3.49,0.93 6.92,1.95 10.19,3l0.17,0.05l0,-0.12c0.07,-0.39 0.14,-0.78 0.21,-1.18l0,-0.12l-0.06,-0.04z" class="cls-3"/>
  <path id="svg_39" d="m103,72.62l0.2,-1.18c-0.07,0.39 -0.14,0.79 -0.21,1.18l0.01,0z" class="cls-3"/>
  <path id="svg_40" d="m61.42,68.73c-1.92,-0.09 -3.51,-0.13 -5,-0.13s-3.06,0 -5,0.13l0,0l0,0.13l-0.24,1.2l0,0.13l0,0c2,-0.1 3.69,-0.15 5.27,-0.15s3.22,0 5.22,0.15l0.06,0l-0.31,-1.46z" class="cls-3"/>
  <path id="svg_41" d="m39.87,69.83c-2.41,0.35 -4.93,0.78 -7.49,1.3c-0.94,0.19 -1.89,0.39 -2.92,0.62l-0.17,0c-0.91,0.2 -1.83,0.42 -2.75,0.64l-0.18,0l-2.65,0.67l-0.12,0l-2.58,0.7c-3.48,1 -7,2.1 -10.16,3.24c0.09,0.4 0.18,0.81 0.28,1.21l0,0.08l0,0.12l0,0c3.21,-1.16 6.61,-2.24 10.09,-3.22c2.7,-0.76 5.46,-1.46 8.2,-2.08l0.33,-0.07l2.64,-0.56c2.45,-0.5 4.87,-0.92 7.2,-1.27c0,0 0.28,-1.49 0.28,-1.49l0,0.11z" class="cls-3"/>
  <polygon id="svg_42" points="11.140000343322754,78.4000015258789 11.140000343322754,78.4000015258789 11.140000343322754,78.4000015258789 11.140000343322754,78.4000015258789 " class="cls-3"/>
  <path id="svg_43" d="m11.12,78.32l0,0.08l0,0l0,-0.08z" class="cls-3"/>
  <path id="svg_44" d="m101.84,77.09c-3.2,-1.14 -6.55,-2.21 -9.94,-3.17c-3.79,-1.07 -7.62,-2 -11.39,-2.76l-0.15,0c-2.54,-0.51 -4.94,-0.93 -7.33,-1.27l-0.15,0l0,0.13l0.24,1.23l0,0.13l0.06,0c2.29,0.34 4.66,0.76 7.05,1.24c2,0.4 4,0.85 5.93,1.33l2.73,0.7l0.05,0l2.59,0.71l0,0l0,0c3.34,0.95 6.65,2 9.84,3.15l0.22,0.08l0,-0.12c0.09,-0.38 0.18,-0.77 0.27,-1.15l0,-0.12l-0.02,-0.11z" class="cls-3"/>
  <path id="svg_45" d="m43.8,30.49s1.67,-1.57 1.67,-3.09c0,-3.45 -1.85,-3.21 -2.66,-3.21c-1.85,0 -4.37,2.88 -4.37,2.88c0.28,-0.63 0.76,-1.75 0.9,-2.1c0.06,-0.14 0.13,-0.32 0.21,-0.51a4.5,4.5 0 0 0 0.07,-3.16c-0.43,-1.33 -1.35,-1.9 -2.1,-2.83s-1.11,-1.31 -1.11,-1.31s-0.29,0.33 -1.1,1.33s-1.67,1.5 -2.1,2.83a4.51,4.51 0 0 0 0.09,3.17c0.07,0.2 0.15,0.37 0.21,0.51c0.14,0.35 0.62,1.47 0.9,2.1c0,0 -2.52,-2.88 -4.37,-2.88c-0.8,0 -2.66,-0.23 -2.66,3.21c0,1.52 1.67,3.09 1.67,3.09s0.24,-1.24 2.06,-1.24c1.25,0 2.1,1.31 2.1,2.79c0,1.21 -0.25,2.23 -0.55,2.36a20.07,20.07 0 0 1 1.7,1.29c0.38,0.38 2.06,2.41 2.06,2.41s1.68,-2 2.06,-2.41a20.59,20.59 0 0 1 1.71,-1.29c-0.3,-0.13 -0.55,-1.14 -0.55,-2.36c0,-1.47 0.85,-2.79 2.1,-2.79c1.81,-0.01 2.06,1.21 2.06,1.21z" class="cls-3"/>
  <path id="svg_46" d="m57.38,116.1a2.39,2.39 0 0 0 2.41,2.69c1.71,0 6,-1.66 6.33,-8.32c0.25,-4.87 -1.17,-6.16 -1.17,-6.16l-2.62,4.78c0,6.87 -4.95,7.01 -4.95,7.01z" class="cls-3"/>
  <path id="svg_47" d="m50.45,109.1l-2.62,-4.78s-1.41,1.29 -1.21,6.17c0.34,6.66 4.62,8.32 6.32,8.32a2.4,2.4 0 0 0 2.41,-2.69s-4.9,-0.16 -4.9,-7.02z" class="cls-3"/>
  <path id="svg_48" d="m59.12,109.97a23.58,23.58 0 0 1 0.79,-6.78c0.42,-1.5 3,-3.08 3,-3.08c-2.58,-2.87 -4.84,1 -4.74,0.54a7.16,7.16 0 0 0 -0.62,-3.24a9.78,9.78 0 0 0 -1.11,-1.77a9.81,9.81 0 0 0 -1.1,1.77a7.18,7.18 0 0 0 -0.62,3.24c0.09,0.48 -2.16,-3.41 -4.74,-0.54c0,0 2.54,1.58 3,3.08a23.48,23.48 0 0 1 0.79,6.78c0,2.67 1.41,3.38 2.06,3.67l0,7.09l1.21,0l0,-7c0.47,-0.24 2.12,-0.9 2.08,-3.76z" class="cls-3"/>
  <polygon id="svg_49" points="72.31999969482422,32.84000015258789 72.18000030517578,33.55999755859375 75.4000015258789,31.700000762939453 75.4000015258789,38.0099983215332 76.12999725341797,38.0099983215332 76.22000122070312,38.0099983215332 76.95999908447266,38.0099983215332 76.95999908447266,31.700000762939453 80.18000030517578,33.55999755859375 80.02999877929688,32.84000015258789 83.44999694824219,32.77000045776367 81.80000305175781,29.790000915527344 82.48999786376953,29.549999237060547 80.80000305175781,28.579999923706055 84.97000122070312,26.170000076293945 84.27999877929688,25.940000534057617 85.93000030517578,22.950000762939453 82.5199966430664,22.8799991607666 82.66000366210938,22.15999984741211 78.41000366210938,24.610000610351562 78.41000366210938,19.709999084472656 77.86000061035156,20.190000534057617 76.18000030517578,17.270000457763672 74.5,20.190000534057617 73.94000244140625,19.709999084472656 73.94000244140625,24.610000610351562 69.69999694824219,22.15999984741211 69.83999633789062,22.8799991607666 66.43000030517578,22.950000762939453 68.06999969482422,25.940000534057617 67.37999725341797,26.170000076293945 71.55000305175781,28.579999923706055 69.86000061035156,29.549999237060547 70.55999755859375,29.790000915527344 68.91000366210938,32.77000045776367 72.31999969482422,32.84000015258789 " class="cls-3"/>
 </g>
</svg>